<?xml version="1.0" standalone="no"?>
<!DOCTYPE svg PUBLIC "-//W3C//DTD SVG 20010904//EN"
 "http://www.w3.org/TR/2001/REC-SVG-20010904/DTD/svg10.dtd">
<svg version="1.0" xmlns="http://www.w3.org/2000/svg"
 width="1024.000000pt" height="1024.000000pt" viewBox="0 0 1024.000000 1024.000000"
 preserveAspectRatio="xMidYMid meet">

<g transform="translate(0.000000,1024.000000) scale(0.100000,-0.100000)"
fill="#000000" stroke="none">
<path d="M1605 9589 c-489 -71 -886 -472 -954 -963 -15 -106 -15 -6247 -1
-6364 21 -162 86 -336 182 -482 54 -84 224 -254 308 -308 142 -94 314 -159
474 -181 109 -15 6263 -15 6372 0 251 35 485 156 664 345 149 157 235 320 292
554 19 82 19 6418 0 6500 -62 256 -157 426 -331 592 -151 146 -297 228 -510
287 l-96 26 -3170 1 c-1755 1 -3197 -2 -3230 -7z m6350 -645 c181 -47 317
-186 354 -362 8 -38 11 -932 11 -3145 0 -3389 4 -3142 -58 -3266 -56 -112
-200 -217 -331 -241 -74 -14 -6188 -14 -6262 0 -183 34 -344 195 -379 379 -14
74 -14 6187 0 6262 15 81 72 188 131 248 57 56 166 116 239 130 25 5 1425 9
3140 10 2768 1 3102 -1 3155 -15z"/>
<path d="M2420 8305 c-108 -24 -224 -88 -311 -175 -252 -251 -251 -648 1 -900
250 -250 642 -253 895 -6 119 117 181 253 191 421 26 419 -361 748 -776 660z"/>
<path d="M1920 4480 l0 -1920 640 0 640 0 0 1920 0 1920 -640 0 -640 0 0
-1920z"/>
<path d="M3840 4480 l0 -1920 639 0 640 0 4 1028 c4 1118 3 1104 62 1289 67
212 214 345 427 388 96 19 281 19 369 1 217 -46 342 -193 396 -463 15 -80 17
-188 20 -1165 l4 -1078 640 0 640 0 -4 1148 c-3 1003 -6 1165 -21 1292 -34
289 -95 531 -180 715 -107 231 -291 422 -514 534 -364 183 -1013 201 -1365 38
-169 -78 -326 -218 -417 -371 -25 -41 -48 -76 -52 -76 -5 0 -8 126 -8 280 l0
280 -640 0 -640 0 0 -1920z"/>
</g>
</svg>
