<?xml version="1.0" standalone="no"?>
<!DOCTYPE svg PUBLIC "-//W3C//DTD SVG 20010904//EN"
 "http://www.w3.org/TR/2001/REC-SVG-20010904/DTD/svg10.dtd">
<svg version="1.0" xmlns="http://www.w3.org/2000/svg"
 width="512.000000pt" height="512.000000pt" viewBox="0 0 512.000000 512.000000"
 preserveAspectRatio="xMidYMid meet">

<g transform="translate(0.000000,512.000000) scale(0.100000,-0.100000)"
fill="#000000" stroke="none">
<path d="M2425 5091 c-27 -10 -481 -268 -1009 -573 -669 -387 -972 -567 -1003
-597 -56 -55 -99 -141 -113 -222 -13 -82 -13 -2177 0 -2268 13 -90 59 -179
124 -238 31 -28 156 -107 306 -193 376 -215 459 -248 640 -257 204 -9 342 38
449 153 64 68 101 137 128 236 15 57 17 168 20 1197 4 1016 2 1136 -12 1157
-15 23 -19 24 -160 24 -137 0 -145 -1 -159 -22 -14 -20 -16 -143 -16 -1118 l0
-1095 -24 -50 c-24 -52 -64 -93 -120 -122 -45 -25 -176 -23 -241 3 -64 26
-576 321 -592 342 -10 12 -13 250 -13 1113 0 1030 1 1098 18 1117 15 17 1817
1062 1886 1093 20 9 32 9 51 1 68 -31 1872 -1077 1887 -1094 17 -19 18 -87 18
-1117 0 -862 -3 -1101 -12 -1113 -22 -29 -1891 -1101 -1919 -1101 -15 0 -126
60 -272 146 -135 81 -254 147 -264 147 -10 0 -47 -16 -83 -36 -36 -20 -105
-51 -155 -70 -111 -43 -117 -49 -84 -78 39 -33 656 -397 719 -423 73 -30 197
-32 270 -4 28 11 478 266 1001 568 656 377 968 563 1005 596 65 59 111 147
124 238 13 91 13 2186 0 2268 -14 83 -57 165 -117 223 -35 34 -300 192 -1009
601 -528 305 -982 562 -1007 571 -66 22 -198 21 -262 -3z"/>
<path d="M2857 3635 c-374 -61 -608 -237 -672 -506 -19 -82 -19 -236 0 -318
35 -147 137 -268 288 -340 149 -71 304 -105 657 -146 460 -54 646 -110 694
-209 24 -49 24 -156 1 -213 -37 -88 -133 -152 -285 -189 -102 -25 -465 -31
-603 -10 -250 37 -361 110 -416 273 -11 33 -23 79 -27 102 -12 72 -33 81 -195
81 -76 0 -149 -4 -164 -10 -37 -14 -44 -44 -34 -143 36 -355 272 -573 714
-658 205 -40 611 -36 805 7 205 46 343 116 460 234 129 128 169 222 177 420 8
204 -26 310 -137 421 -138 140 -316 198 -830 273 -454 67 -593 101 -659 161
-33 31 -35 37 -39 104 -10 168 84 256 318 298 120 21 445 13 545 -15 179 -49
266 -133 319 -311 27 -92 26 -91 208 -91 147 0 159 1 179 21 19 19 20 28 14
88 -10 88 -49 222 -88 296 -38 74 -169 207 -250 254 -72 42 -225 95 -337 116
-120 23 -523 29 -643 10z"/>
</g>
</svg>
